<svg width="235" height="34" viewBox="0 0 235 34" fill="none" xmlns="http://www.w3.org/2000/svg">
<path d="M141.643 19.1072V0.444354H145.215L153.161 13.615H151.268L159.079 0.444354H162.625L162.679 19.1072H158.626L158.599 6.65642H159.346L153.107 17.1343H151.161L144.789 6.65642H145.695V19.1072H141.643Z" fill="#202020"/>
<path d="M164.654 19.1072L172.972 0.444354H177.238L185.583 19.1072H181.05L174.225 2.63057H175.931L169.079 19.1072H164.654ZM168.813 15.108L169.959 11.8287H179.557L180.73 15.108H168.813Z" fill="#202020"/>
<path d="M190.447 19.1072V3.96363H184.475V0.444354H200.739V3.96363H194.767V19.1072H190.447Z" fill="#202020"/>
<path d="M207.035 7.96281H216.02V11.3221H207.035V7.96281ZM207.355 15.6412H217.513V19.1072H203.063V0.444354H217.166V3.91031H207.355V15.6412Z" fill="#202020"/>
<path d="M227.082 19.4271C225.589 19.4271 224.158 19.2316 222.789 18.8406C221.421 18.4318 220.319 17.9074 219.483 17.2676L220.95 14.0149C221.749 14.5837 222.691 15.0547 223.776 15.428C224.878 15.7834 225.989 15.9612 227.108 15.9612C227.961 15.9612 228.646 15.8812 229.161 15.7212C229.694 15.5435 230.085 15.3035 230.334 15.0014C230.583 14.6992 230.708 14.3526 230.708 13.9616C230.708 13.4639 230.512 13.0729 230.121 12.7885C229.73 12.4863 229.215 12.2464 228.575 12.0686C227.935 11.8731 227.224 11.6954 226.442 11.5354C225.677 11.3577 224.904 11.1444 224.122 10.8955C223.358 10.6467 222.656 10.3268 222.016 9.93574C221.376 9.54471 220.852 9.02926 220.443 8.38939C220.052 7.74952 219.856 6.93191 219.856 5.93656C219.856 4.87011 220.141 3.90142 220.71 3.03049C221.296 2.14178 222.167 1.43971 223.322 0.924256C224.495 0.391032 225.962 0.12442 227.722 0.12442C228.895 0.12442 230.05 0.266613 231.187 0.550999C232.325 0.817611 233.329 1.22642 234.2 1.77741L232.867 5.05674C231.996 4.55907 231.125 4.1947 230.254 3.96363C229.383 3.7148 228.53 3.59038 227.695 3.59038C226.859 3.59038 226.175 3.68813 225.642 3.88365C225.109 4.07917 224.727 4.33689 224.495 4.65682C224.264 4.95898 224.149 5.31447 224.149 5.72327C224.149 6.20317 224.344 6.59421 224.735 6.89637C225.126 7.18075 225.642 7.41182 226.282 7.58956C226.922 7.7673 227.624 7.94504 228.388 8.12278C229.17 8.30052 229.943 8.50493 230.708 8.73599C231.49 8.96705 232.201 9.2781 232.84 9.66913C233.48 10.0602 233.996 10.5756 234.387 11.2155C234.796 11.8554 235 12.6641 235 13.6417C235 14.6903 234.707 15.6501 234.12 16.5211C233.534 17.392 232.654 18.0941 231.481 18.6273C230.325 19.1605 228.859 19.4271 227.082 19.4271Z" fill="#202020"/>
<path d="M24.5498 33.3265V26.3279H25.2897V33.3265H24.5498Z" fill="#696969"/>
<path d="M29.3664 33.3265V26.3279H29.9763L34.8053 32.4067H34.4853V26.3279H35.2152V33.3265H34.6053L29.7863 27.2477H30.1062V33.3265H29.3664Z" fill="#696969"/>
<path d="M40.6588 33.3265V26.9678H38.1994V26.3279H43.8582V26.9678H41.3987V33.3265H40.6588Z" fill="#696969"/>
<path d="M47.4996 29.4573H51.1989V30.0872H47.4996V29.4573ZM47.5796 32.6866H51.7888V33.3265H46.8398V26.3279H51.6388V26.9678H47.5796V32.6866Z" fill="#696969"/>
<path d="M55.3275 33.3265V26.3279H56.0673V32.6866H59.9865V33.3265H55.3275Z" fill="#696969"/>
<path d="M63.0146 33.3265V26.3279H63.7544V32.6866H67.6736V33.3265H63.0146Z" fill="#696969"/>
<path d="M70.7017 33.3265V26.3279H71.4415V33.3265H70.7017Z" fill="#696969"/>
<path d="M78.5876 33.3865C78.0544 33.3865 77.5612 33.2998 77.1079 33.1265C76.6614 32.9466 76.2715 32.6966 75.9382 32.3767C75.6116 32.0568 75.355 31.6802 75.1683 31.2469C74.9884 30.8137 74.8984 30.3404 74.8984 29.8272C74.8984 29.314 74.9884 28.8408 75.1683 28.4075C75.355 27.9743 75.6149 27.5977 75.9482 27.2777C76.2814 26.9578 76.6714 26.7112 77.1179 26.5379C77.5712 26.3579 78.0644 26.2679 78.5976 26.2679C79.1309 26.2679 79.6174 26.3513 80.0573 26.5179C80.5039 26.6845 80.8838 26.9378 81.1971 27.2777L80.7372 27.7476C80.4439 27.4544 80.1207 27.2444 79.7674 27.1178C79.4141 26.9911 79.0342 26.9278 78.6276 26.9278C78.1944 26.9278 77.7945 27.0011 77.4279 27.1478C77.068 27.2877 76.7514 27.491 76.4781 27.7576C76.2115 28.0176 76.0015 28.3242 75.8482 28.6775C75.7016 29.024 75.6282 29.4073 75.6282 29.8272C75.6282 30.2405 75.7016 30.6237 75.8482 30.977C76.0015 31.3302 76.2115 31.6402 76.4781 31.9068C76.7514 32.1667 77.068 32.37 77.4279 32.5167C77.7945 32.6566 78.1911 32.7266 78.6176 32.7266C79.0176 32.7266 79.3941 32.6666 79.7474 32.5467C80.1073 32.4267 80.4373 32.2234 80.7372 31.9368L81.1571 32.4967C80.8239 32.7899 80.4339 33.0132 79.9874 33.1665C79.5408 33.3132 79.0742 33.3865 78.5876 33.3865ZM80.4473 32.4067V29.8272H81.1571V32.4967L80.4473 32.4067Z" fill="#696969"/>
<path d="M85.7106 29.4573H89.4098V30.0872H85.7106V29.4573ZM85.7905 32.6866H89.9997V33.3265H85.0507V26.3279H89.8497V26.9678H85.7905V32.6866Z" fill="#696969"/>
<path d="M93.5384 33.3265V26.3279H94.1483L98.9773 32.4067H98.6574V26.3279H99.3872V33.3265H98.7773L93.9583 27.2477H94.2783V33.3265H93.5384Z" fill="#696969"/>
<path d="M106.511 33.3865C105.984 33.3865 105.497 33.2998 105.051 33.1265C104.604 32.9466 104.218 32.6966 103.891 32.3767C103.564 32.0568 103.308 31.6802 103.121 31.2469C102.941 30.8137 102.851 30.3404 102.851 29.8272C102.851 29.314 102.941 28.8408 103.121 28.4075C103.308 27.9743 103.564 27.5977 103.891 27.2777C104.224 26.9578 104.614 26.7112 105.061 26.5379C105.507 26.3579 105.994 26.2679 106.521 26.2679C107.027 26.2679 107.504 26.3546 107.95 26.5279C108.397 26.6945 108.773 26.9478 109.08 27.2877L108.61 27.7576C108.323 27.4644 108.007 27.2544 107.66 27.1278C107.314 26.9945 106.94 26.9278 106.541 26.9278C106.121 26.9278 105.731 27.0011 105.371 27.1478C105.011 27.2877 104.698 27.491 104.431 27.7576C104.164 28.0176 103.954 28.3242 103.801 28.6775C103.654 29.024 103.581 29.4073 103.581 29.8272C103.581 30.2471 103.654 30.6337 103.801 30.987C103.954 31.3336 104.164 31.6402 104.431 31.9068C104.698 32.1667 105.011 32.37 105.371 32.5167C105.731 32.6566 106.121 32.7266 106.541 32.7266C106.94 32.7266 107.314 32.66 107.66 32.5267C108.007 32.3934 108.323 32.1801 108.61 31.8868L109.08 32.3567C108.773 32.6966 108.397 32.9532 107.95 33.1265C107.504 33.2998 107.024 33.3865 106.511 33.3865Z" fill="#696969"/>
<path d="M113.117 29.4573H116.816V30.0872H113.117V29.4573ZM113.197 32.6866H117.406V33.3265H112.457V26.3279H117.256V26.9678H113.197V32.6866Z" fill="#696969"/>
<path d="M126.021 29.4573H129.72V30.0872H126.021V29.4573ZM126.101 32.6866H130.31V33.3265H125.361V26.3279H130.16V26.9678H126.101V32.6866Z" fill="#696969"/>
<path d="M133.849 33.3265V26.3279H134.458L139.287 32.4067H138.967V26.3279H139.697V33.3265H139.087L134.268 27.2477H134.588V33.3265H133.849Z" fill="#696969"/>
<path d="M146.851 33.3865C146.317 33.3865 145.824 33.2998 145.371 33.1265C144.924 32.9466 144.534 32.6966 144.201 32.3767C143.875 32.0568 143.618 31.6802 143.431 31.2469C143.251 30.8137 143.161 30.3404 143.161 29.8272C143.161 29.314 143.251 28.8408 143.431 28.4075C143.618 27.9743 143.878 27.5977 144.211 27.2777C144.544 26.9578 144.934 26.7112 145.381 26.5379C145.834 26.3579 146.327 26.2679 146.861 26.2679C147.394 26.2679 147.88 26.3513 148.32 26.5179C148.767 26.6845 149.147 26.9378 149.46 27.2777L149 27.7476C148.707 27.4544 148.384 27.2444 148.03 27.1178C147.677 26.9911 147.297 26.9278 146.891 26.9278C146.457 26.9278 146.057 27.0011 145.691 27.1478C145.331 27.2877 145.014 27.491 144.741 27.7576C144.474 28.0176 144.264 28.3242 144.111 28.6775C143.965 29.024 143.891 29.4073 143.891 29.8272C143.891 30.2405 143.965 30.6237 144.111 30.977C144.264 31.3302 144.474 31.6402 144.741 31.9068C145.014 32.1667 145.331 32.37 145.691 32.5167C146.057 32.6566 146.454 32.7266 146.881 32.7266C147.281 32.7266 147.657 32.6666 148.01 32.5467C148.37 32.4267 148.7 32.2234 149 31.9368L149.42 32.4967C149.087 32.7899 148.697 33.0132 148.25 33.1665C147.804 33.3132 147.337 33.3865 146.851 33.3865ZM148.71 32.4067V29.8272H149.42V32.4967L148.71 32.4067Z" fill="#696969"/>
<path d="M153.314 33.3265V26.3279H154.054V33.3265H153.314Z" fill="#696969"/>
<path d="M158.13 33.3265V26.3279H158.74L163.569 32.4067H163.249V26.3279H163.979V33.3265H163.369L158.55 27.2477H158.87V33.3265H158.13Z" fill="#696969"/>
<path d="M168.723 29.4573H172.422V30.0872H168.723V29.4573ZM168.803 32.6866H173.012V33.3265H168.063V26.3279H172.862V26.9678H168.803V32.6866Z" fill="#696969"/>
<path d="M177.211 29.4573H180.91V30.0872H177.211V29.4573ZM177.291 32.6866H181.5V33.3265H176.551V26.3279H181.35V26.9678H177.291V32.6866Z" fill="#696969"/>
<path d="M185.038 33.3265V26.3279H187.658C188.251 26.3279 188.761 26.4246 189.188 26.6179C189.614 26.8045 189.941 27.0778 190.167 27.4377C190.401 27.791 190.517 28.2209 190.517 28.7274C190.517 29.2207 190.401 29.6473 190.167 30.0072C189.941 30.3604 189.614 30.6337 189.188 30.827C188.761 31.0136 188.251 31.107 187.658 31.107H185.448L185.778 30.767V33.3265H185.038ZM189.817 33.3265L188.018 30.787H188.818L190.627 33.3265H189.817ZM185.778 30.827L185.448 30.4771H187.638C188.338 30.4771 188.868 30.3238 189.228 30.0172C189.594 29.7106 189.777 29.2807 189.777 28.7274C189.777 28.1676 189.594 27.7343 189.228 27.4277C188.868 27.1211 188.338 26.9678 187.638 26.9678H185.448L185.778 26.6179V30.827Z" fill="#696969"/>
<path d="M194.723 29.4573H198.422V30.0872H194.723V29.4573ZM194.803 32.6866H199.012V33.3265H194.063V26.3279H198.862V26.9678H194.803V32.6866Z" fill="#696969"/>
<path d="M202.551 33.3265V26.3279H205.4C206.147 26.3279 206.8 26.4779 207.36 26.7778C207.926 27.0711 208.366 27.481 208.68 28.0076C208.993 28.5341 209.149 29.1407 209.149 29.8272C209.149 30.5137 208.993 31.1203 208.68 31.6468C208.366 32.1734 207.926 32.5867 207.36 32.8866C206.8 33.1799 206.147 33.3265 205.4 33.3265H202.551ZM203.291 32.6866H205.36C205.98 32.6866 206.517 32.5667 206.97 32.3267C207.43 32.0801 207.786 31.7435 208.04 31.3169C208.293 30.8837 208.42 30.3871 208.42 29.8272C208.42 29.2607 208.293 28.7641 208.04 28.3375C207.786 27.9109 207.43 27.5777 206.97 27.3377C206.517 27.0911 205.98 26.9678 205.36 26.9678H203.291V32.6866Z" fill="#696969"/>
<path d="M0 19.1072V0.444351H9.11813C11.4643 0.444351 13.224 0.888705 14.3971 1.77741C15.5879 2.66612 16.1834 3.83921 16.1834 5.29669C16.1834 6.27427 15.9434 7.12743 15.4635 7.85617C14.9836 8.56713 14.326 9.11813 13.4906 9.50916C12.6552 9.90019 11.6954 10.0957 10.6112 10.0957L11.1177 9.0026C12.2908 9.0026 13.3306 9.19812 14.2371 9.58915C15.1436 9.9624 15.8456 10.5223 16.3433 11.2688C16.8588 12.0153 17.1165 12.9307 17.1165 14.0149C17.1165 15.6146 16.4855 16.8677 15.2235 17.7741C13.9616 18.6628 12.1042 19.1072 9.65136 19.1072H0ZM4.29245 15.8545H9.33142C10.4512 15.8545 11.2955 15.6768 11.8642 15.3213C12.4508 14.948 12.7441 14.3615 12.7441 13.5617C12.7441 12.7796 12.4508 12.2019 11.8642 11.8287C11.2955 11.4377 10.4512 11.2421 9.33142 11.2421H3.97252V8.09612H8.58491C9.63358 8.09612 10.4334 7.91838 10.9844 7.56289C11.5532 7.18964 11.8376 6.62975 11.8376 5.88324C11.8376 5.1545 11.5532 4.61239 10.9844 4.2569C10.4334 3.88365 9.63358 3.69702 8.58491 3.69702H4.29245V15.8545Z" fill="#202020"/>
<path d="M20.3864 19.1072V0.444351H24.7056V19.1072H20.3864Z" fill="#202020"/>
<path d="M29.1347 19.1072V0.444351H32.7073L40.6523 13.615H38.7594L46.5711 0.444351H50.117L50.1703 19.1072H46.1178L46.0912 6.65641H46.8377L40.599 17.1343H38.6527L32.2807 6.65641H33.1872V19.1072H29.1347Z" fill="#202020"/>
<path d="M59.6959 19.1072L68.0142 0.444351H72.28L80.6249 19.1072H76.0925L69.2673 2.63057H70.9736L64.1217 19.1072H59.6959ZM63.855 15.108L65.0015 11.8287H74.5995L75.7726 15.108H63.855Z" fill="#202020"/>
<path d="M90.4623 19.4271C87.814 19.4271 85.7433 18.6895 84.2502 17.2143C82.7572 15.739 82.0107 13.6328 82.0107 10.8955V0.444351H86.3298V10.7356C86.3298 12.513 86.6942 13.7927 87.4229 14.5748C88.1517 15.3569 89.1737 15.7479 90.489 15.7479C91.8043 15.7479 92.8263 15.3569 93.555 14.5748C94.2837 13.7927 94.6481 12.513 94.6481 10.7356V0.444351H98.9139V10.8955C98.9139 13.6328 98.1674 15.739 96.6744 17.2143C95.1813 18.6895 93.1107 19.4271 90.4623 19.4271Z" fill="#202020"/>
<path d="M106.735 19.1072V3.96363H100.763V0.444351H117.027V3.96363H111.055V19.1072H106.735Z" fill="#202020"/>
<path d="M123.491 10.0829H121.81C121.97 13.3534 124.672 15.9559 127.983 15.9559C129.872 15.9559 131.564 15.1076 132.698 13.7712L134.577 16.9925C132.838 18.5819 130.524 19.5515 127.983 19.5515C122.584 19.5515 118.207 15.1748 118.207 9.77577C118.207 7.66654 118.875 5.71324 120.011 4.11606L123.491 10.0829Z" fill="#076EA5"/>
<path d="M127.983 0C133.382 0 137.758 4.37676 137.758 9.77577C137.758 11.8564 137.108 13.785 136 15.37L132.588 9.51986H134.157C134.023 6.22537 131.31 3.59564 127.983 3.59564C126.121 3.59564 124.451 4.41923 123.318 5.722L121.444 2.50912C123.176 0.9494 125.468 0 127.983 0Z" fill="#076EA5"/>
<path d="M123.491 10.0828H121.81C121.97 13.3533 124.672 15.9559 127.983 15.9559C129.872 15.9559 131.564 15.1076 132.697 13.7713L134.577 16.9926C132.838 18.5819 130.524 19.5515 127.983 19.5515C122.584 19.5515 118.207 15.1748 118.207 9.77577C118.207 7.66655 118.875 5.7133 120.011 4.11612L123.491 10.0828Z" fill="#27A5E8"/>
</svg>
